<svg width="130" height="130" viewBox="0 0 130 130" fill="none" xmlns="http://www.w3.org/2000/svg">
<circle cx="65" cy="65" r="65" fill="#198754"/>
<path d="M89.119 43.7854C90.3287 42.6276 91.9384 41.9875 93.6085 42.0002C95.2786 42.0129 96.8785 42.6774 98.0705 43.8535C99.2626 45.0296 99.9536 46.6253 99.9977 48.3038C100.042 49.9824 99.4357 51.6126 98.3071 52.8504L64.045 95.9306C63.4558 96.5685 62.7448 97.0805 61.9543 97.4359C61.1639 97.7913 60.3102 97.9828 59.4445 97.9989C58.5788 98.015 57.7187 97.8554 56.9157 97.5297C56.1127 97.204 55.3832 96.7188 54.771 96.1032L32.0498 73.2595C31.417 72.6667 30.9095 71.9519 30.5575 71.1576C30.2055 70.3634 30.0163 69.506 30.001 68.6366C29.9857 67.7672 30.1448 66.9036 30.4687 66.0973C30.7926 65.2911 31.2748 64.5587 31.8863 63.9438C32.4979 63.329 33.2263 62.8443 34.0283 62.5186C34.8302 62.1929 35.6891 62.033 36.5539 62.0484C37.4186 62.0637 38.2714 62.254 39.0614 62.6079C39.8514 62.9618 40.5624 63.472 41.152 64.1082L59.1332 82.1777L88.9559 43.9753C89.0096 43.9089 89.0669 43.8454 89.1276 43.7854H89.119Z" fill="white"/>
</svg>
