<svg width="24" height="27" viewBox="0 0 24 27" fill="none" xmlns="http://www.w3.org/2000/svg">
<path d="M5.62166 26.8509C5.35855 26.7756 5.07039 26.7318 4.82608 26.6126C3.89268 26.155 3.39779 25.3964 3.36647 24.3495C3.35394 23.8793 3.72354 23.4969 4.17458 23.4906C4.65067 23.4781 5.02654 23.8417 5.04533 24.3181C5.05786 24.8259 5.41493 25.1707 5.92861 25.1707C9.48053 25.1707 13.0387 25.1707 16.5906 25.1707C18.044 25.1707 19.5036 25.1707 20.9569 25.1707C21.4643 25.1707 21.8277 24.8071 21.8277 24.3056C21.8277 19.5786 21.8277 14.8454 21.8277 10.1184C21.8277 9.43511 21.5395 8.91477 20.9444 8.57623C20.6876 8.43204 20.4057 8.36935 20.1175 8.36935C19.0839 8.36935 18.044 8.36935 17.0104 8.36935C15.9579 8.36935 15.1122 7.51674 15.1122 6.46979C15.1122 5.42911 15.1185 4.38842 15.1122 3.34774C15.1122 2.53902 14.586 1.88702 13.803 1.69895C13.684 1.6676 13.5524 1.65506 13.4271 1.65506C10.9151 1.65506 8.39679 1.65506 5.88476 1.65506C5.4024 1.65506 5.03907 2.03121 5.03907 2.52021C5.03907 5.30999 5.03907 8.0935 5.03907 10.8833C5.03907 11.3159 4.74464 11.6607 4.3124 11.7296C3.924 11.7923 3.52935 11.5478 3.40406 11.1591C3.379 11.0714 3.36021 10.9773 3.36021 10.8896C3.36021 8.06216 3.35394 5.23476 3.36021 2.40736C3.36021 1.27891 4.22469 0.269575 5.35855 0.0250767C5.38361 0.0188075 5.40867 0.00626918 5.42746 0C8.79145 0 12.1617 0 15.5257 0C15.5445 0.00626918 15.5633 0.0188075 15.5821 0.0250767C16.2085 0.156729 16.7535 0.432573 17.2108 0.890223C18.9899 2.67694 20.7753 4.45738 22.5606 6.2441C23.1933 6.87728 23.5003 7.63585 23.5003 8.53235C23.5003 13.8047 23.5003 19.0771 23.5003 24.3432C23.5003 25.4528 22.7548 26.4496 21.6899 26.7568C21.5458 26.8007 21.3954 26.8258 21.2451 26.8571C16.0456 26.8509 10.8336 26.8509 5.62166 26.8509Z" fill="#005BFF"/>
<path d="M10.084 12.6299C13.0904 12.6299 16.0967 12.6299 19.1094 12.6299C19.2221 12.6299 19.3412 12.6236 19.4476 12.6424C19.8735 12.7238 20.1429 13.0558 20.1429 13.5004C20.1429 15.7988 20.1429 18.0972 20.1429 20.3957C20.1429 20.8779 20.1429 21.3601 20.1429 21.8361C20.1429 22.3308 19.7796 22.7003 19.2848 22.7003C13.153 22.7003 7.02745 22.7003 0.895656 22.7003C0.350746 22.7003 0 22.3496 0 21.7985C0 19.0304 0 16.256 0 13.4879C0 12.9994 0.369536 12.6362 0.851812 12.6299C3.93337 12.6299 7.00866 12.6299 10.084 12.6299ZM14.3054 20.3268C14.4119 20.3142 14.581 20.308 14.7439 20.2829C14.8754 20.2641 15.0069 20.2266 15.1385 20.1827C15.8713 19.926 16.2533 19.2872 16.1093 18.5544C16.0216 18.116 15.7209 17.8593 15.3326 17.7027C14.9881 17.5649 14.6186 17.4772 14.2679 17.352C14.0424 17.2706 13.8232 17.1829 13.6165 17.0576C13.4474 16.9574 13.4035 16.7821 13.4536 16.5817C13.5225 16.3186 13.7104 16.1934 13.9547 16.1433C14.3994 16.0619 14.8128 16.1495 15.2011 16.375C15.3076 16.4376 15.4078 16.4815 15.533 16.4439C15.6834 16.3938 15.7773 16.2936 15.8086 16.1433C15.8462 15.9679 15.7648 15.8301 15.627 15.7237C15.3264 15.4982 14.9819 15.3855 14.6061 15.3479C14.0612 15.2978 13.5476 15.3792 13.0841 15.6986C12.4202 16.1621 12.345 17.3395 13.1843 17.7778C13.4098 17.8906 13.6478 17.9783 13.8858 18.0597C14.1676 18.1599 14.4495 18.235 14.7313 18.3227C14.8065 18.3478 14.8879 18.3853 14.9568 18.4292C15.3451 18.6609 15.3514 19.1055 14.9631 19.3498C14.7564 19.4813 14.5309 19.5064 14.2992 19.4938C13.8795 19.4625 13.4849 19.3498 13.1342 19.1055C13.0027 19.0179 12.8711 19.0053 12.7271 19.0868C12.4452 19.2496 12.4264 19.6504 12.702 19.8571C13.1655 20.2015 13.6916 20.308 14.3054 20.3268ZM5.29251 17.7716C5.26746 17.8029 5.24867 17.828 5.22988 17.853C4.81023 18.3853 4.39059 18.9177 3.97721 19.45C3.92711 19.5126 3.877 19.5878 3.85821 19.6629C3.80184 19.8508 3.91458 20.0449 4.10874 20.1452C4.30917 20.2454 4.51586 20.1953 4.65365 20.0136C5.02945 19.5189 5.39899 19.0241 5.76852 18.5294C5.79984 18.4855 5.83742 18.4417 5.875 18.3979C5.90632 18.4354 5.91884 18.4542 5.93763 18.473C6.33849 18.9866 6.73308 19.5001 7.14019 20.0074C7.3093 20.2203 7.58489 20.2454 7.77905 20.0825C7.97948 19.9197 7.99827 19.688 7.81663 19.4563C7.62873 19.2183 7.43457 18.9803 7.24041 18.7423C6.98361 18.4229 6.72681 18.1035 6.47002 17.7841C6.48881 17.7591 6.50133 17.7403 6.51386 17.7215C6.90845 17.2267 7.3093 16.7382 7.70389 16.2435C7.86674 16.0368 7.83542 15.7926 7.62873 15.6297C7.42204 15.4669 7.20283 15.4982 7.03372 15.7112C6.75187 16.0681 6.47002 16.4188 6.1819 16.7758C6.08169 16.9011 5.98148 17.0263 5.875 17.1516C5.47415 16.6568 5.09208 16.1746 4.70376 15.6986C4.65365 15.636 4.58475 15.5796 4.51586 15.5483C4.34049 15.4732 4.12127 15.5546 3.996 15.7174C3.88326 15.8677 3.88953 16.0619 4.02106 16.2247C4.19643 16.4439 4.38433 16.6631 4.56596 16.8823C4.8165 17.1766 5.0545 17.471 5.29251 17.7716ZM9.4952 19.306C9.4952 19.2371 9.4952 19.1807 9.4952 19.1306C9.4952 18.0847 9.4952 17.0451 9.4952 15.9992C9.4952 15.7237 9.33236 15.5421 9.10061 15.5358C8.84382 15.5358 8.68097 15.7112 8.68097 15.993C8.68097 17.2455 8.68097 18.4981 8.68097 19.7569C8.68097 20.0074 8.83755 20.1765 9.08182 20.1765C9.83969 20.1827 10.6038 20.1827 11.3617 20.1765C11.5872 20.1765 11.7625 20.0262 11.8064 19.8383C11.8627 19.569 11.6811 19.3247 11.3993 19.3122C11.0986 19.2997 10.798 19.306 10.4973 19.306C10.1654 19.306 9.83969 19.306 9.4952 19.306Z" fill="#005BFF"/>
</svg>
