<svg width="65" height="40" viewBox="0 0 65 40" fill="none" xmlns="http://www.w3.org/2000/svg">
<g clip-path="url(#clip0_2060_8147)">
<rect width="64" height="40" transform="translate(0.5)" fill="white" fill-opacity="0.01"/>
<path d="M32.5 39.7027C50.1731 39.7027 64.5 36.592 64.5 32.7547C64.5 28.9174 50.1731 25.8066 32.5 25.8066C14.8269 25.8066 0.5 28.9174 0.5 32.7547C0.5 36.592 14.8269 39.7027 32.5 39.7027Z" fill="#F5F5F5"/>
<path d="M55.5 13.6653L45.354 2.24866C44.867 1.47048 44.156 1 43.407 1H21.593C20.844 1 20.133 1.47048 19.646 2.24767L9.5 13.6663V22.8367H55.5V13.6653Z" stroke="#CED4DA"/>
<path d="M42.113 16.8135C42.113 15.2205 43.107 13.9053 44.34 13.9043H55.5V31.9067C55.5 34.0139 54.18 35.741 52.55 35.741H12.45C10.82 35.741 9.5 34.0129 9.5 31.9067V13.9043H20.66C21.893 13.9043 22.887 15.2175 22.887 16.8106V16.8324C22.887 18.4255 23.892 19.7119 25.124 19.7119H39.876C41.108 19.7119 42.113 18.4136 42.113 16.8205V16.8135Z" fill="#FAFAFA" stroke="#CED4DA"/>
</g>
<defs>
<clipPath id="clip0_2060_8147">
<rect width="64" height="40" fill="white" transform="translate(0.5)"/>
</clipPath>
</defs>
</svg>
