<svg width="15" height="15" viewBox="0 0 15 15" fill="none" xmlns="http://www.w3.org/2000/svg">
<g clip-path="url(#clip0_2025_2494)">
<rect width="14" height="14" transform="translate(0.5 0.5)" fill="white" fill-opacity="0.01"/>
<path d="M3.56452 3.5625C3.56452 3.44647 3.51842 3.33519 3.43638 3.25314C3.35433 3.17109 3.24305 3.125 3.12702 3.125C3.01099 3.125 2.89971 3.17109 2.81766 3.25314C2.73561 3.33519 2.68952 3.44647 2.68952 3.5625V11.2564L1.68677 10.2527C1.64609 10.2121 1.5978 10.1798 1.54465 10.1578C1.49151 10.1358 1.43454 10.1244 1.37702 10.1244C1.31949 10.1244 1.26253 10.1358 1.20938 10.1578C1.15624 10.1798 1.10794 10.2121 1.06727 10.2527C1.02659 10.2934 0.994324 10.3417 0.97231 10.3949C0.950295 10.448 0.938965 10.505 0.938965 10.5625C0.938965 10.62 0.950295 10.677 0.97231 10.7301C0.994324 10.7833 1.02659 10.8316 1.06727 10.8723L2.81727 12.6214L2.82339 12.6275C2.90553 12.7076 3.016 12.752 3.13072 12.751C3.24545 12.75 3.35514 12.7037 3.43589 12.6222L5.18589 10.8723C5.26804 10.7902 5.31424 10.6789 5.31432 10.5628C5.31441 10.4467 5.26837 10.3353 5.18633 10.2532C5.1043 10.171 4.99299 10.1248 4.87689 10.1248C4.76079 10.1247 4.64942 10.1707 4.56727 10.2527L3.56452 11.2564V3.5625ZM7.06452 4C6.94849 4 6.83721 3.95391 6.75516 3.87186C6.67311 3.78981 6.62702 3.67853 6.62702 3.5625C6.62702 3.44647 6.67311 3.33519 6.75516 3.25314C6.83721 3.17109 6.94849 3.125 7.06452 3.125H7.93952C8.05555 3.125 8.16683 3.17109 8.24888 3.25314C8.33092 3.33519 8.37702 3.44647 8.37702 3.5625C8.37702 3.67853 8.33092 3.78981 8.24888 3.87186C8.16683 3.95391 8.05555 4 7.93952 4H7.06452ZM7.06452 6.625C6.94849 6.625 6.83721 6.57891 6.75516 6.49686C6.67311 6.41481 6.62702 6.30353 6.62702 6.1875C6.62702 6.07147 6.67311 5.96019 6.75516 5.87814C6.83721 5.79609 6.94849 5.75 7.06452 5.75H9.68952C9.80555 5.75 9.91683 5.79609 9.99888 5.87814C10.0809 5.96019 10.127 6.07147 10.127 6.1875C10.127 6.30353 10.0809 6.41481 9.99888 6.49686C9.91683 6.57891 9.80555 6.625 9.68952 6.625H7.06452ZM7.06452 9.25C6.94849 9.25 6.83721 9.20391 6.75516 9.12186C6.67311 9.03981 6.62702 8.92853 6.62702 8.8125C6.62702 8.69647 6.67311 8.58519 6.75516 8.50314C6.83721 8.42109 6.94849 8.375 7.06452 8.375H11.4395C11.5556 8.375 11.6668 8.42109 11.7489 8.50314C11.8309 8.58519 11.877 8.69647 11.877 8.8125C11.877 8.92853 11.8309 9.03981 11.7489 9.12186C11.6668 9.20391 11.5556 9.25 11.4395 9.25H7.06452ZM6.62702 11.4375C6.62702 11.5535 6.67311 11.6648 6.75516 11.7469C6.83721 11.8289 6.94849 11.875 7.06452 11.875H13.1895C13.3056 11.875 13.4168 11.8289 13.4989 11.7469C13.5809 11.6648 13.627 11.5535 13.627 11.4375C13.627 11.3215 13.5809 11.2102 13.4989 11.1281C13.4168 11.0461 13.3056 11 13.1895 11H7.06452C6.94849 11 6.83721 11.0461 6.75516 11.1281C6.67311 11.2102 6.62702 11.3215 6.62702 11.4375Z" fill="white"/>
</g>
<defs>
<clipPath id="clip0_2025_2494">
<rect width="14" height="14" fill="white" transform="translate(0.5 0.5)"/>
</clipPath>
</defs>
</svg>
