<svg width="14" height="15" viewBox="0 0 14 15" fill="none" xmlns="http://www.w3.org/2000/svg">
<g clip-path="url(#clip0_2035_9328)">
<rect width="14" height="14" transform="translate(0 0.5)" fill="white" fill-opacity="0.01"/>
<path d="M7.3094 1.50207C7.26876 1.46132 7.22048 1.429 7.16733 1.40694C7.11418 1.38489 7.0572 1.37354 6.99965 1.37354C6.9421 1.37354 6.88512 1.38489 6.83197 1.40694C6.77882 1.429 6.73054 1.46132 6.6899 1.50207L1.4399 6.75207C1.3993 6.79277 1.36712 6.84108 1.3452 6.89423C1.32328 6.94738 1.31205 7.00433 1.31215 7.06182V13.1868C1.31215 13.3028 1.35824 13.4141 1.44029 13.4962C1.52234 13.5782 1.63362 13.6243 1.74965 13.6243H5.68715C5.80318 13.6243 5.91446 13.5782 5.99651 13.4962C6.07856 13.4141 6.12465 13.3028 6.12465 13.1868V9.68682H7.87465V13.1868C7.87465 13.3028 7.92074 13.4141 8.00279 13.4962C8.08484 13.5782 8.19612 13.6243 8.31215 13.6243H12.2497C12.3657 13.6243 12.477 13.5782 12.559 13.4962C12.6411 13.4141 12.6872 13.3028 12.6872 13.1868V7.06182C12.6873 7.00433 12.676 6.94738 12.6541 6.89423C12.6322 6.84108 12.6 6.79277 12.5594 6.75207L11.3747 5.56819V2.68682C11.3747 2.57079 11.3286 2.45951 11.2465 2.37746C11.1645 2.29541 11.0532 2.24932 10.9372 2.24932H10.0622C9.94612 2.24932 9.83484 2.29541 9.75279 2.37746C9.67074 2.45951 9.62465 2.57079 9.62465 2.68682V3.81819L7.3094 1.50207ZM2.18715 12.7493V7.24294L6.99965 2.43044L11.8122 7.24294V12.7493H8.74965V9.24932C8.74965 9.13329 8.70356 9.022 8.62151 8.93996C8.53946 8.85791 8.42818 8.81182 8.31215 8.81182H5.68715C5.57112 8.81182 5.45984 8.85791 5.37779 8.93996C5.29574 9.022 5.24965 9.13329 5.24965 9.24932V12.7493H2.18715Z" fill="#005BFF"/>
</g>
<defs>
<clipPath id="clip0_2035_9328">
<rect width="14" height="14" fill="white" transform="translate(0 0.5)"/>
</clipPath>
</defs>
</svg>
