<svg width="202" height="26" viewBox="0 0 202 26" fill="none" xmlns="http://www.w3.org/2000/svg">
<path d="M0 20.4724V1.41446H4.94474V8.67286H5.0164C5.19556 8.18898 5.45834 7.7454 5.80469 7.34215C6.15107 6.93271 6.58104 6.60701 7.09463 6.36507C7.60823 6.11692 8.20542 5.99284 8.88621 5.99284C9.79395 5.99284 10.6569 6.24409 11.475 6.74659C12.2992 7.24911 12.968 8.04008 13.4816 9.11955C14.0012 10.199 14.2609 11.6011 14.2609 13.3257C14.2609 14.9759 14.0131 16.3438 13.5174 17.4295C13.0277 18.5152 12.3708 19.3247 11.5467 19.8583C10.7285 20.3918 9.82977 20.6585 8.85038 20.6585C8.20542 20.6585 7.62912 20.55 7.12151 20.3329C6.61986 20.1095 6.18989 19.8086 5.83157 19.4302C5.47923 19.0456 5.2075 18.6113 5.0164 18.1274H4.90892V20.4724H0ZM4.83726 13.3257C4.83726 14.0205 4.92383 14.6223 5.09702 15.131C5.27618 15.6335 5.52702 16.0243 5.84949 16.3035C6.17795 16.5765 6.5691 16.713 7.02298 16.713C7.47684 16.713 7.86202 16.5796 8.17854 16.3128C8.50103 16.0399 8.74587 15.6521 8.91309 15.1496C9.08628 14.6409 9.17287 14.0329 9.17287 13.3257C9.17287 12.6185 9.08628 12.0136 8.91309 11.5111C8.74587 11.0024 8.50103 10.6147 8.17854 10.3479C7.86202 10.0749 7.47684 9.93845 7.02298 9.93845C6.5691 9.93845 6.17795 10.0749 5.84949 10.3479C5.52702 10.6147 5.27618 11.0024 5.09702 11.5111C4.92383 12.0136 4.83726 12.6185 4.83726 13.3257ZM16.3302 20.4724V6.17895H21.275V20.4724H16.3302ZM18.8026 4.69005C18.1337 4.69005 17.5604 4.46051 17.0827 4.00144C16.6049 3.54235 16.366 2.99023 16.366 2.34502C16.366 1.69983 16.6049 1.1477 17.0827 0.688617C17.5604 0.229539 18.1337 0 18.8026 0C19.4774 0 20.0506 0.229539 20.5224 0.688617C21.0003 1.1477 21.2392 1.69983 21.2392 2.34502C21.2392 2.99023 21.0003 3.54235 20.5224 4.00144C20.0506 4.46051 19.4774 4.69005 18.8026 4.69005ZM28.7392 1.41446V20.4724H23.7944V1.41446H28.7392ZM36.2033 1.41446V20.4724H31.2586V1.41446H36.2033ZM38.651 20.4724V1.41446H43.5957V8.67286H43.6675C43.8466 8.18898 44.1093 7.7454 44.4558 7.34215C44.802 6.93271 45.232 6.60701 45.7456 6.36507C46.2592 6.11692 46.8563 5.99284 47.5372 5.99284C48.4449 5.99284 49.3079 6.24409 50.126 6.74659C50.9501 7.24911 51.619 8.04008 52.1326 9.11955C52.652 10.199 52.912 11.6011 52.912 13.3257C52.912 14.9759 52.6641 16.3438 52.1684 17.4295C51.6787 18.5152 51.0219 19.3247 50.1977 19.8583C49.3794 20.3918 48.4808 20.6585 47.5013 20.6585C46.8563 20.6585 46.2801 20.55 45.7724 20.3329C45.2709 20.1095 44.8408 19.8086 44.4826 19.4302C44.1302 19.0456 43.8584 18.6113 43.6675 18.1274H43.5599V20.4724H38.651ZM43.4881 13.3257C43.4881 14.0205 43.5748 14.6223 43.7481 15.131C43.9272 15.6335 44.1779 16.0243 44.5005 16.3035C44.8288 16.5765 45.22 16.713 45.6739 16.713C46.1277 16.713 46.513 16.5796 46.8295 16.3128C47.1519 16.0399 47.3969 15.6521 47.564 15.1496C47.7372 14.6409 47.8237 14.0329 47.8237 13.3257C47.8237 12.6185 47.7372 12.0136 47.564 11.5111C47.3969 11.0024 47.1519 10.6147 46.8295 10.3479C46.513 10.0749 46.1277 9.93845 45.6739 9.93845C45.22 9.93845 44.8288 10.0749 44.5005 10.3479C44.1779 10.6147 43.9272 11.0024 43.7481 11.5111C43.5748 12.0136 43.4881 12.6185 43.4881 13.3257ZM61.61 20.7331C60.117 20.7331 58.839 20.4259 57.7759 19.8117C56.7131 19.1914 55.8978 18.329 55.3305 17.2248C54.7633 16.1143 54.4795 14.827 54.4795 13.3629C54.4795 11.8988 54.7633 10.6147 55.3305 9.51037C55.8978 8.3999 56.7131 7.53758 57.7759 6.92341C58.839 6.30303 60.117 5.99284 61.61 5.99284C63.103 5.99284 64.381 6.30303 65.4441 6.92341C66.5069 7.53758 67.3222 8.3999 67.8895 9.51037C68.4567 10.6147 68.7405 11.8988 68.7405 13.3629C68.7405 14.827 68.4567 16.1143 67.8895 17.2248C67.3222 18.329 66.5069 19.1914 65.4441 19.8117C64.381 20.4259 63.103 20.7331 61.61 20.7331ZM61.6459 16.9363C62.0639 16.9363 62.4251 16.7905 62.7298 16.4989C63.0343 16.2074 63.2701 15.7917 63.4375 15.252C63.6046 14.7122 63.6881 14.0702 63.6881 13.3257C63.6881 12.575 63.6046 11.933 63.4375 11.3994C63.2701 10.8597 63.0343 10.4441 62.7298 10.1525C62.4251 9.8609 62.0639 9.71509 61.6459 9.71509C61.2038 9.71509 60.8247 9.8609 60.5082 10.1525C60.1917 10.4441 59.9499 10.8597 59.7825 11.3994C59.6154 11.933 59.5319 12.575 59.5319 13.3257C59.5319 14.0702 59.6154 14.7122 59.7825 15.252C59.9499 15.7917 60.1917 16.2074 60.5082 16.4989C60.8247 16.7905 61.2038 16.9363 61.6459 16.9363ZM74.581 20.6958C73.7032 20.6958 72.9267 20.547 72.252 20.2491C71.5831 19.9451 71.0575 19.486 70.6754 18.8719C70.2932 18.2577 70.1021 17.476 70.1021 16.5268C70.1021 15.7452 70.2304 15.0783 70.4872 14.5261C70.7439 13.9678 71.1024 13.5118 71.5622 13.1582C72.022 12.8046 72.5564 12.5347 73.1656 12.3486C73.7808 12.1625 74.4436 12.0415 75.1543 11.9857C75.9246 11.9236 76.5428 11.8492 77.0085 11.7623C77.4803 11.6693 77.8208 11.5421 78.0297 11.3808C78.2388 11.2133 78.3433 10.9931 78.3433 10.7201V10.6829C78.3433 10.3107 78.2059 10.0253 77.9312 9.82677C77.6565 9.62825 77.3041 9.529 76.8743 9.529C76.4025 9.529 76.0172 9.63756 75.7187 9.8547C75.426 10.0656 75.2498 10.3913 75.1901 10.8318H70.6395C70.6992 9.96326 70.9651 9.16297 71.4369 8.43092C71.9146 7.69268 72.6102 7.10332 73.5241 6.66286C74.4377 6.21617 75.5784 5.99284 76.9458 5.99284C77.9312 5.99284 78.8151 6.11381 79.5975 6.35577C80.3796 6.59151 81.0456 6.92341 81.595 7.35147C82.1444 7.77332 82.5624 8.26962 82.8492 8.84037C83.1418 9.40492 83.288 10.0191 83.288 10.6829V20.4724H78.6657V18.4624H78.5583C78.2836 18.9959 77.9491 19.4271 77.555 19.7559C77.1668 20.0847 76.722 20.3235 76.2202 20.4724C75.7246 20.6213 75.1781 20.6958 74.581 20.6958ZM76.1934 17.4574C76.5696 17.4574 76.922 17.3768 77.2505 17.2155C77.585 17.0542 77.8565 16.8215 78.0656 16.5175C78.2747 16.2136 78.3792 15.8444 78.3792 15.4102V14.219C78.2477 14.2749 78.1074 14.3276 77.9582 14.3772C77.8147 14.4269 77.6594 14.4734 77.4923 14.5168C77.3311 14.5602 77.1579 14.6006 76.9728 14.6378C76.7935 14.675 76.6055 14.7091 76.4084 14.7402C76.0263 14.8022 75.7128 14.9046 75.4678 15.0472C75.2289 15.1837 75.0498 15.3543 74.9304 15.5591C74.8169 15.7576 74.7601 15.9809 74.7601 16.2291C74.7601 16.6261 74.8945 16.9301 75.1633 17.141C75.4319 17.3519 75.7754 17.4574 76.1934 17.4574ZM85.6508 20.4724V6.17895H90.4521V8.8962H90.5955C90.8462 7.8912 91.2433 7.15604 91.7868 6.69076C92.3363 6.22548 92.9781 5.99284 93.7128 5.99284C93.9278 5.99284 94.1397 6.01145 94.3488 6.04868C94.5638 6.0797 94.7697 6.12621 94.9668 6.18827V10.5712C94.722 10.4844 94.4205 10.4192 94.062 10.3758C93.7038 10.3324 93.3963 10.3107 93.1395 10.3107C92.6557 10.3107 92.2198 10.4254 91.8316 10.655C91.4494 10.8783 91.1479 11.1947 90.9268 11.6041C90.7059 12.0074 90.5955 12.482 90.5955 13.0279V20.4724H85.6508ZM100.78 20.6585C99.8012 20.6585 98.8994 20.3918 98.0752 19.8583C97.2572 19.3247 96.6001 18.5152 96.1045 17.4295C95.6148 16.3438 95.37 14.9759 95.37 13.3257C95.37 11.6011 95.6268 10.199 96.1404 9.11955C96.6599 8.04008 97.3287 7.24911 98.147 6.74659C98.9711 6.24409 99.8369 5.99284 100.745 5.99284C101.425 5.99284 102.023 6.11692 102.536 6.36507C103.05 6.60701 103.48 6.93271 103.826 7.34215C104.172 7.7454 104.435 8.18898 104.615 8.67286H104.686V1.41446H109.631V20.4724H104.722V18.1274H104.615C104.423 18.6113 104.149 19.0456 103.79 19.4302C103.438 19.8086 103.008 20.1095 102.501 20.3329C101.999 20.55 101.425 20.6585 100.78 20.6585ZM102.608 16.713C103.062 16.713 103.45 16.5765 103.772 16.3035C104.101 16.0243 104.352 15.6335 104.525 15.131C104.704 14.6223 104.794 14.0205 104.794 13.3257C104.794 12.6185 104.704 12.0136 104.525 11.5111C104.352 11.0024 104.101 10.6147 103.772 10.3479C103.45 10.0749 103.062 9.93845 102.608 9.93845C102.154 9.93845 101.766 10.0749 101.443 10.3479C101.127 10.6147 100.882 11.0024 100.709 11.5111C100.542 12.0136 100.458 12.6185 100.458 13.3257C100.458 14.0329 100.542 14.6409 100.709 15.1496C100.882 15.6521 101.127 16.0399 101.443 16.3128C101.766 16.5796 102.154 16.713 102.608 16.713ZM114.746 20.7703C114.053 20.7703 113.459 20.5189 112.963 20.0165C112.474 19.5078 112.232 18.8905 112.238 18.1646C112.232 17.4574 112.474 16.8525 112.963 16.35C113.459 15.8475 114.053 15.5963 114.746 15.5963C115.403 15.5963 115.982 15.8475 116.484 16.35C116.991 16.8525 117.248 17.4574 117.254 18.1646C117.248 18.6485 117.126 19.089 116.887 19.486C116.654 19.8769 116.349 20.1902 115.973 20.4259C115.597 20.6555 115.188 20.7703 114.746 20.7703Z" fill="#222222"/>
<path d="M126.535 20.7335C125.066 20.7335 123.799 20.4418 122.736 19.8587C121.679 19.2693 120.864 18.4256 120.291 17.3276C119.724 16.2233 119.44 14.9019 119.44 13.3633C119.44 11.8868 119.727 10.5965 120.3 9.49218C120.873 8.38792 121.682 7.52869 122.728 6.91451C123.773 6.30034 125.006 5.99325 126.427 5.99325C127.466 5.99325 128.407 6.16076 129.249 6.49577C130.091 6.83076 130.81 7.31776 131.408 7.95675C132.005 8.58953 132.465 9.3588 132.787 10.2646C133.11 11.1703 133.271 12.1908 133.271 13.3261V14.5172H120.981V11.6883H128.72C128.714 11.2789 128.613 10.919 128.416 10.6089C128.225 10.2925 127.965 10.0474 127.636 9.87372C127.314 9.69381 126.947 9.60386 126.535 9.60386C126.135 9.60386 125.767 9.69381 125.433 9.87372C125.098 10.0474 124.83 10.2894 124.627 10.5996C124.429 10.9098 124.325 11.2727 124.313 11.6883V14.7406C124.313 15.1997 124.406 15.6091 124.591 15.9689C124.776 16.3287 125.042 16.611 125.388 16.8157C125.734 17.0205 126.152 17.1228 126.642 17.1228C126.983 17.1228 127.293 17.0732 127.574 16.9739C127.86 16.8747 128.105 16.732 128.308 16.5459C128.511 16.3536 128.661 16.124 128.756 15.8572H133.271C133.116 16.8499 132.748 17.7122 132.169 18.4442C131.59 19.1701 130.822 19.7346 129.867 20.1378C128.917 20.5349 127.807 20.7335 126.535 20.7335ZM139.405 6.17937L141.411 10.6089L143.525 6.17937H148.434L144.744 13.3261L148.613 20.4729H143.74L141.411 15.9317L139.154 20.4729H134.209L138.115 13.3261L134.46 6.17937H139.405ZM150.192 25.833V6.17937H155.101V8.67328H155.209C155.388 8.18939 155.651 7.74582 155.997 7.34257C156.343 6.93312 156.773 6.60743 157.287 6.36548C157.801 6.11734 158.398 5.99325 159.079 5.99325C159.986 5.99325 160.849 6.24451 161.667 6.74701C162.492 7.24953 163.16 8.0405 163.674 9.11997C164.193 10.1994 164.453 11.6015 164.453 13.3261C164.453 14.9763 164.206 16.3442 163.71 17.4299C163.22 18.5156 162.563 19.3252 161.739 19.8587C160.921 20.3922 160.022 20.659 159.043 20.659C158.398 20.659 157.822 20.5505 157.314 20.3333C156.812 20.1099 156.382 19.8091 156.024 19.4306C155.672 19.046 155.4 18.6117 155.209 18.1278H155.137V25.833H150.192ZM155.03 13.3261C155.03 14.0209 155.116 14.6227 155.289 15.1314C155.468 15.6339 155.719 16.0248 156.042 16.3039C156.37 16.5769 156.761 16.7134 157.215 16.7134C157.669 16.7134 158.054 16.58 158.371 16.3132C158.693 16.0403 158.938 15.6525 159.105 15.15C159.279 14.6413 159.365 14.0334 159.365 13.3261C159.365 12.6189 159.279 12.014 159.105 11.5115C158.938 11.0028 158.693 10.6151 158.371 10.3483C158.054 10.0753 157.669 9.93887 157.215 9.93887C156.761 9.93887 156.37 10.0753 156.042 10.3483C155.719 10.6151 155.468 11.0028 155.289 11.5115C155.116 12.014 155.03 12.6189 155.03 13.3261ZM173.118 20.7335C171.649 20.7335 170.383 20.4418 169.32 19.8587C168.263 19.2693 167.447 18.4256 166.874 17.3276C166.307 16.2233 166.023 14.9019 166.023 13.3633C166.023 11.8868 166.31 10.5965 166.883 9.49218C167.456 8.38792 168.266 7.52869 169.311 6.91451C170.356 6.30034 171.589 5.99325 173.01 5.99325C174.049 5.99325 174.99 6.16076 175.832 6.49577C176.674 6.83076 177.394 7.31776 177.991 7.95675C178.588 8.58953 179.048 9.3588 179.37 10.2646C179.693 11.1703 179.854 12.1908 179.854 13.3261V14.5172H167.564V11.6883H175.303C175.298 11.2789 175.196 10.919 174.999 10.6089C174.808 10.2925 174.548 10.0474 174.22 9.87372C173.897 9.69381 173.53 9.60386 173.118 9.60386C172.718 9.60386 172.35 9.69381 172.016 9.87372C171.681 10.0474 171.413 10.2894 171.21 10.5996C171.013 10.9098 170.908 11.2727 170.896 11.6883V14.7406C170.896 15.1997 170.989 15.6091 171.174 15.9689C171.359 16.3287 171.625 16.611 171.971 16.8157C172.318 17.0205 172.736 17.1228 173.225 17.1228C173.566 17.1228 173.876 17.0732 174.157 16.9739C174.443 16.8747 174.688 16.732 174.891 16.5459C175.094 16.3536 175.244 16.124 175.339 15.8572H179.854C179.699 16.8499 179.331 17.7122 178.752 18.4442C178.173 19.1701 177.406 19.7346 176.45 20.1378C175.501 20.5349 174.39 20.7335 173.118 20.7335ZM181.872 20.4729V6.17937H186.673V8.89662H186.817C187.067 7.89162 187.464 7.15646 188.008 6.69118C188.557 6.2259 189.199 5.99325 189.934 5.99325C190.149 5.99325 190.361 6.01186 190.57 6.0491C190.785 6.08012 190.991 6.12663 191.188 6.18868V10.5717C190.943 10.4848 190.642 10.4196 190.283 10.3762C189.925 10.3328 189.618 10.3111 189.361 10.3111C188.877 10.3111 188.441 10.4258 188.053 10.6554C187.671 10.8787 187.369 11.1951 187.148 11.6046C186.927 12.0078 186.817 12.4824 186.817 13.0283V20.4729H181.872ZM201.58 6.17937V9.90163H192.516V6.17937H201.58ZM194.272 2.75488H199.216V15.8759C199.216 16.0744 199.249 16.2419 199.314 16.3784C199.381 16.5087 199.482 16.6079 199.62 16.6761C199.758 16.7382 199.933 16.7692 200.148 16.7692C200.297 16.7692 200.471 16.7506 200.668 16.7134C200.871 16.6761 201.021 16.6451 201.115 16.6203L201.833 20.2309C201.612 20.2992 201.295 20.3829 200.883 20.4821C200.477 20.5814 199.992 20.6465 199.432 20.6776C198.297 20.7396 197.345 20.6186 196.574 20.3147C195.804 20.0045 195.224 19.5175 194.836 18.8537C194.448 18.1899 194.26 17.3586 194.272 16.3598V2.75488Z" fill="#005BFF"/>
</svg>
