<svg width="13" height="13" viewBox="0 0 13 13" fill="none" xmlns="http://www.w3.org/2000/svg">
<path d="M8.33333 2.58633C8.14369 2.58633 7.95664 2.54101 7.787 2.45396L5.213 1.13237C5.04336 1.04532 4.85631 1 4.66667 1M8.33333 2.58633C8.52298 2.58633 8.71002 2.54101 8.87967 2.45396L11.1157 1.30557C11.209 1.25772 11.3126 1.23516 11.4167 1.24003C11.5208 1.2449 11.622 1.27704 11.7106 1.33339C11.7992 1.38973 11.8723 1.46842 11.923 1.56197C11.9736 1.65551 12.0002 1.76081 12 1.86784V9.87771C11.9999 9.99422 11.9683 10.1084 11.9086 10.2075C11.8489 10.3066 11.7635 10.3867 11.6621 10.4387L8.87967 11.8676C8.71002 11.9547 8.52298 12 8.33333 12M8.33333 2.58633V12M8.33333 12C8.14369 12 7.95664 11.9547 7.787 11.8676L5.213 10.546C5.04336 10.459 4.85631 10.4137 4.66667 10.4137C4.47702 10.4137 4.28998 10.459 4.12033 10.546L1.88428 11.6944C1.79099 11.7423 1.68733 11.7649 1.58316 11.76C1.47898 11.7551 1.37776 11.7229 1.28913 11.6664C1.20049 11.61 1.12739 11.5313 1.07679 11.4376C1.02618 11.344 0.999745 11.2386 1 11.1315V3.12229C1.00006 3.00578 1.03171 2.89158 1.09139 2.7925C1.15108 2.69341 1.23645 2.61335 1.33795 2.56127L4.12033 1.13237C4.28998 1.04532 4.47702 1 4.66667 1M4.66667 1V10.413" stroke="#005BFF" stroke-linecap="round" stroke-linejoin="round"/>
</svg>
