<svg width="16" height="16" viewBox="0 0 16 16" fill="none" xmlns="http://www.w3.org/2000/svg">
<g clip-path="url(#clip0_2131_6096)">
<rect width="16" height="16" fill="white" fill-opacity="0.01"/>
<g clip-path="url(#clip1_2131_6096)">
<path d="M15.9996 7.99902C15.9996 10.1208 15.1568 12.1556 13.6565 13.6559C12.1562 15.1562 10.1214 15.999 7.99963 15.999C5.8779 15.999 3.84307 15.1562 2.34278 13.6559C0.842489 12.1556 -0.000366211 10.1208 -0.000366211 7.99902C-0.000366211 5.87729 0.842489 3.84246 2.34278 2.34217C3.84307 0.841878 5.8779 -0.000976562 7.99963 -0.000976562C10.1214 -0.000976562 12.1562 0.841878 13.6565 2.34217C15.1568 3.84246 15.9996 5.87729 15.9996 7.99902ZM12.0296 4.96902C11.9582 4.89784 11.8732 4.8418 11.7796 4.80424C11.686 4.76668 11.5858 4.74838 11.485 4.75044C11.3841 4.75249 11.2848 4.77485 11.1928 4.81619C11.1008 4.85753 11.0181 4.91699 10.9496 4.99102L7.47663 9.41602L5.38363 7.32202C5.24146 7.18954 5.05341 7.11742 4.85911 7.12085C4.66481 7.12428 4.47942 7.20299 4.34201 7.3404C4.2046 7.47781 4.12589 7.6632 4.12246 7.8575C4.11903 8.0518 4.19115 8.23985 4.32363 8.38202L6.96963 11.029C7.04092 11.1002 7.1258 11.1562 7.21922 11.1939C7.31264 11.2315 7.41268 11.2499 7.51338 11.2481C7.61408 11.2462 7.71337 11.2241 7.80533 11.183C7.89729 11.1419 7.98004 11.0828 8.04863 11.009L12.0406 6.01902C12.1767 5.87752 12.2519 5.6883 12.25 5.49198C12.2482 5.29566 12.1694 5.10791 12.0306 4.96902H12.0296Z" fill="#842029"/>
</g>
</g>
<defs>
<clipPath id="clip0_2131_6096">
<rect width="16" height="16" fill="white"/>
</clipPath>
<clipPath id="clip1_2131_6096">
<rect width="16" height="16" fill="white"/>
</clipPath>
</defs>
</svg>
