<svg width="16" height="16" viewBox="0 0 16 16" fill="none" xmlns="http://www.w3.org/2000/svg">
<g clip-path="url(#clip0_2131_4013)">
<rect width="16" height="16" fill="white" fill-opacity="0.01"/>
<g clip-path="url(#clip1_2131_4013)">
<path d="M15.9997 7.99915C15.9997 10.1209 15.1568 12.1557 13.6565 13.656C12.1562 15.1563 10.1214 15.9991 7.99966 15.9991C5.87793 15.9991 3.8431 15.1563 2.34281 13.656C0.842519 12.1557 -0.000335693 10.1209 -0.000335693 7.99915C-0.000335693 5.87741 0.842519 3.84258 2.34281 2.34229C3.8431 0.842 5.87793 -0.000854492 7.99966 -0.000854492C10.1214 -0.000854492 12.1562 0.842 13.6565 2.34229C15.1568 3.84258 15.9997 5.87741 15.9997 7.99915ZM12.0297 4.96915C11.9582 4.89796 11.8732 4.84192 11.7796 4.80436C11.686 4.7668 11.5858 4.7485 11.485 4.75056C11.3842 4.75261 11.2848 4.77498 11.1928 4.81631C11.1008 4.85765 11.0181 4.91711 10.9497 4.99115L7.47666 9.41615L5.38366 7.32215C5.24149 7.18967 5.05344 7.11754 4.85914 7.12097C4.66484 7.1244 4.47946 7.20311 4.34204 7.34052C4.20463 7.47794 4.12592 7.66332 4.12249 7.85762C4.11906 8.05192 4.19118 8.23997 4.32366 8.38215L6.96966 11.0291C7.04095 11.1003 7.12583 11.1564 7.21925 11.194C7.31267 11.2316 7.41271 11.2501 7.51341 11.2482C7.61411 11.2463 7.7134 11.2242 7.80536 11.1831C7.89732 11.1421 7.98007 11.0829 8.04866 11.0091L12.0407 6.01915C12.1768 5.87764 12.2519 5.68842 12.2501 5.4921C12.2482 5.29579 12.1694 5.10803 12.0307 4.96915H12.0297Z" fill="#0F5132"/>
</g>
</g>
<defs>
<clipPath id="clip0_2131_4013">
<rect width="16" height="16" fill="white"/>
</clipPath>
<clipPath id="clip1_2131_4013">
<rect width="16" height="16" fill="white"/>
</clipPath>
</defs>
</svg>
