<svg width="8" height="19" viewBox="0 0 8 19" fill="none" xmlns="http://www.w3.org/2000/svg">
<path fill-rule="evenodd" clip-rule="evenodd" d="M7.95423 6.99947C7.98462 6.94107 7.99983 6.87747 7.99983 6.81387C7.99983 6.73387 7.97583 6.65467 7.92863 6.58627L4.32862 1.38627C4.25382 1.27827 4.13102 1.21387 3.99983 1.21387C3.86862 1.21387 3.74582 1.27827 3.67102 1.38627L0.0710247 6.58627C-0.0133753 6.70827 -0.0233753 6.86787 0.0454247 6.99947C0.114625 7.13147 0.251025 7.21387 0.399825 7.21387L7.59982 7.21387C7.74862 7.21387 7.88503 7.13147 7.95423 6.99947Z" fill="#CFCFCF"/>
<path fill-rule="evenodd" clip-rule="evenodd" d="M0.0455918 12.1431C0.015192 12.2015 -8.10623e-06 12.2651 -8.10623e-06 12.3287C-8.10623e-06 12.4087 0.0239916 12.4879 0.0711918 12.5563L3.67119 17.7563C3.74599 17.8643 3.86879 17.9287 3.99999 17.9287C4.13119 17.9287 4.25399 17.8643 4.32879 17.7563L7.92879 12.5563C8.01319 12.4343 8.02319 12.2747 7.95439 12.1431C7.88519 12.0111 7.74879 11.9287 7.59999 11.9287L0.399992 11.9287C0.251192 11.9287 0.114792 12.0111 0.0455918 12.1431Z" fill="#CFCFCF"/>
</svg>
