<svg width="12" height="12" viewBox="0 0 12 12" fill="none" xmlns="http://www.w3.org/2000/svg">
<path fill-rule="evenodd" clip-rule="evenodd" d="M11.2501 0.750022C10.8359 0.335793 10.1643 0.335753 9.75009 0.749934L5.99947 4.5L2.24987 0.750067C1.83566 0.335827 1.16407 0.335827 0.749867 0.750066C0.335716 1.16425 0.335716 1.83575 0.749867 2.24993L4.4996 6L0.749868 9.75007C0.335717 10.1643 0.335716 10.8357 0.749867 11.2499C1.16407 11.6642 1.83566 11.6642 2.24987 11.2499L5.99947 7.5L9.75009 11.2501C10.1643 11.6642 10.8359 11.6642 11.2501 11.25C11.6643 10.8358 11.6643 10.1642 11.2501 9.75002L7.5004 6L11.2501 2.24998C11.6643 1.83577 11.6643 1.16423 11.2501 0.750022Z" fill="white"/>
</svg>
