<svg width="164" height="145" viewBox="0 0 164 145" fill="none" xmlns="http://www.w3.org/2000/svg">
<path d="M92.0462 6.40015C91.0317 4.6267 89.5689 3.15327 87.8056 2.12864C86.0422 1.10401 84.0406 0.564453 82.003 0.564453C79.9653 0.564453 77.9638 1.10401 76.2004 2.12864C74.437 3.15327 72.9742 4.6267 71.9597 6.40015L1.6879 126.391C-2.99553 134.393 2.62048 144.564 11.7311 144.564H152.265C161.375 144.564 167.001 134.383 162.308 126.391L92.0462 6.40015ZM81.9825 41.7177C87.4653 41.7177 91.7592 46.4692 91.2058 51.951L87.619 88.0193C87.4985 89.4362 86.8524 90.7562 85.8087 91.718C84.765 92.6799 83.3995 93.2136 81.9825 93.2136C80.5654 93.2136 79.2 92.6799 78.1562 91.718C77.1125 90.7562 76.4665 89.4362 76.346 88.0193L72.7591 51.951C72.6303 50.6575 72.7729 49.3513 73.1777 48.1165C73.5825 46.8817 74.2405 45.7457 75.1095 44.7816C75.9784 43.8176 77.0389 43.0469 78.2226 42.5192C79.4064 41.9915 80.6872 41.7184 81.9825 41.7177ZM82.003 103.426C84.7209 103.426 87.3276 104.509 89.2495 106.438C91.1714 108.367 92.2512 110.983 92.2512 113.71C92.2512 116.438 91.1714 119.054 89.2495 120.983C87.3276 122.912 84.7209 123.995 82.003 123.995C79.285 123.995 76.6783 122.912 74.7564 120.983C72.8345 119.054 71.7548 116.438 71.7548 113.71C71.7548 110.983 72.8345 108.367 74.7564 106.438C76.6783 104.509 79.285 103.426 82.003 103.426Z" fill="#FFEA00"/>
<path d="M81.9825 41.7177C87.4653 41.7177 91.7592 46.4692 91.2058 51.951L87.619 88.0193C87.4985 89.4362 86.8524 90.7562 85.8087 91.718C84.765 92.6799 83.3995 93.2136 81.9825 93.2136C80.5654 93.2136 79.2 92.6799 78.1562 91.718C77.1125 90.7562 76.4665 89.4362 76.346 88.0193L72.7591 51.951C72.6303 50.6575 72.7729 49.3513 73.1777 48.1165C73.5825 46.8817 74.2405 45.7457 75.1095 44.7816C75.9784 43.8176 77.0389 43.0469 78.2226 42.5192C79.4064 41.9915 80.6872 41.7184 81.9825 41.7177Z" fill="#222222"/>
<path d="M82.003 103.426C84.7209 103.426 87.3276 104.509 89.2495 106.438C91.1714 108.367 92.2512 110.983 92.2512 113.71C92.2512 116.438 91.1714 119.054 89.2495 120.983C87.3276 122.912 84.7209 123.995 82.003 123.995C79.285 123.995 76.6783 122.912 74.7564 120.983C72.8345 119.054 71.7548 116.438 71.7548 113.71C71.7548 110.983 72.8345 108.367 74.7564 106.438C76.6783 104.509 79.285 103.426 82.003 103.426Z" fill="#222222"/>
</svg>
