<svg width="16" height="16" viewBox="0 0 16 16" fill="none" xmlns="http://www.w3.org/2000/svg">
<g clip-path="url(#clip0_2060_5174)">
<rect width="16" height="16" fill="white" fill-opacity="0.01"/>
<g clip-path="url(#clip1_2060_5174)">
<path d="M13.6625 2.32507C12.9256 1.58474 12.0482 0.997814 11.0812 0.598476C10.1142 0.199138 9.07702 -0.00462082 8.03013 -0.000927232C3.64339 -0.000927232 0.0683074 3.55706 0.0642893 7.92505C0.0642893 9.32404 0.431944 10.685 1.12607 11.89L0 15.999L4.223 14.897C5.39126 15.5299 6.70008 15.8617 8.03013 15.862H8.03415C12.4219 15.862 15.996 12.304 16 7.93205C16.001 6.89009 15.7949 5.85824 15.3935 4.89594C14.9922 3.93363 14.4035 3.05989 13.6615 2.32507H13.6625ZM8.03013 14.52C6.84379 14.5204 5.67926 14.2026 4.65896 13.6L4.41788 13.456L1.91261 14.11L2.58162 11.677L2.42491 11.426C1.76173 10.3764 1.411 9.16107 1.41336 7.92105C1.41336 4.29506 4.38373 1.33707 8.03415 1.33707C8.9038 1.33552 9.76517 1.50534 10.5686 1.83676C11.372 2.16817 12.1016 2.65462 12.7152 3.26806C13.331 3.87911 13.8192 4.60548 14.1516 5.40529C14.484 6.20509 14.6541 7.0625 14.6519 7.92805C14.6479 11.567 11.6775 14.52 8.03013 14.52ZM11.6615 9.58604C11.4636 9.48704 10.4862 9.00805 10.3024 8.94005C10.1195 8.87505 9.98593 8.84105 9.85535 9.03905C9.72174 9.23604 9.34003 9.68504 9.22551 9.81404C9.111 9.94704 8.99246 9.96204 8.79357 9.86404C8.59568 9.76404 7.95379 9.55604 7.19437 8.87905C6.60171 8.35405 6.20492 7.70405 6.08639 7.50705C5.97187 7.30905 6.07534 7.20305 6.17478 7.10405C6.26218 7.01605 6.37267 6.87205 6.47212 6.75805C6.57257 6.64405 6.60572 6.56005 6.67102 6.42805C6.73631 6.29405 6.70517 6.18005 6.65595 6.08105C6.60572 5.98205 6.20894 5.00506 6.04118 4.61106C5.88046 4.22206 5.71672 4.27606 5.59417 4.27106C5.47966 4.26406 5.34606 4.26406 5.21245 4.26406C5.11156 4.26656 5.01228 4.28979 4.92084 4.33229C4.82939 4.3748 4.74776 4.43566 4.68106 4.51106C4.49824 4.70906 3.98694 5.18806 3.98694 6.16505C3.98694 7.14205 4.70015 8.08105 4.8006 8.21405C4.89904 8.34705 6.2009 10.346 8.19889 11.206C8.67102 11.411 9.04269 11.532 9.333 11.624C9.81014 11.776 10.2411 11.753 10.5846 11.704C10.9663 11.646 11.7609 11.224 11.9287 10.761C12.0934 10.297 12.0934 9.90104 12.0432 9.81804C11.994 9.73404 11.8604 9.68504 11.6615 9.58604Z" fill="white"/>
</g>
</g>
<defs>
<clipPath id="clip0_2060_5174">
<rect width="16" height="16" fill="white"/>
</clipPath>
<clipPath id="clip1_2060_5174">
<rect width="16" height="16" fill="white"/>
</clipPath>
</defs>
</svg>
