<svg width="17" height="16" viewBox="0 0 17 16" fill="none" xmlns="http://www.w3.org/2000/svg">
<g clip-path="url(#clip0_2060_5190)">
<rect width="16" height="16" transform="translate(0.5)" fill="white" fill-opacity="0.01"/>
<g clip-path="url(#clip1_2060_5190)">
<path d="M16.5 7.99902C16.5 10.1208 15.6571 12.1556 14.1569 13.6559C12.6566 15.1562 10.6217 15.999 8.5 15.999C6.37827 15.999 4.34344 15.1562 2.84315 13.6559C1.34285 12.1556 0.5 10.1208 0.5 7.99902C0.5 5.87729 1.34285 3.84246 2.84315 2.34217C4.34344 0.841878 6.37827 -0.000976562 8.5 -0.000976562C10.6217 -0.000976562 12.6566 0.841878 14.1569 2.34217C15.6571 3.84246 16.5 5.87729 16.5 7.99902ZM8.787 5.90502C8.009 6.22902 6.453 6.89902 4.121 7.91502C3.743 8.06502 3.544 8.21302 3.526 8.35702C3.496 8.60002 3.801 8.69602 4.216 8.82702L4.391 8.88202C4.799 9.01502 5.349 9.17002 5.634 9.17602C5.894 9.18202 6.183 9.07602 6.502 8.85602C8.681 7.38502 9.806 6.64202 9.876 6.62602C9.926 6.61402 9.996 6.60002 10.042 6.64202C10.089 6.68302 10.084 6.76202 10.079 6.78302C10.049 6.91202 8.852 8.02402 8.233 8.60002C8.04 8.78002 7.903 8.90702 7.875 8.93602C7.81334 8.99904 7.75067 9.06104 7.687 9.12202C7.307 9.48802 7.023 9.76202 7.702 10.21C8.029 10.426 8.291 10.603 8.552 10.781C8.836 10.975 9.12 11.168 9.488 11.41C9.581 11.47 9.671 11.535 9.758 11.597C10.089 11.833 10.388 12.045 10.755 12.011C10.969 11.991 11.19 11.791 11.302 11.191C11.567 9.77402 12.088 6.70502 12.208 5.44002C12.2153 5.33487 12.211 5.22922 12.195 5.12502C12.1856 5.04094 12.1449 4.96348 12.081 4.90802C11.99 4.84521 11.8815 4.81267 11.771 4.81502C11.471 4.82002 11.008 4.98102 8.787 5.90502Z" fill="white"/>
</g>
</g>
<defs>
<clipPath id="clip0_2060_5190">
<rect width="16" height="16" fill="white" transform="translate(0.5)"/>
</clipPath>
<clipPath id="clip1_2060_5190">
<rect width="16" height="16" fill="white" transform="translate(0.5)"/>
</clipPath>
</defs>
</svg>
